<?xml version="1.0" encoding="UTF-8" standalone="no"?>
<!-- Created with Inkscape (http://www.inkscape.org/) -->

<svg
   xmlns:dc="http://purl.org/dc/elements/1.1/"
   xmlns:cc="http://creativecommons.org/ns#"
   xmlns:rdf="http://www.w3.org/1999/02/22-rdf-syntax-ns#"
   xmlns:svg="http://www.w3.org/2000/svg"
   xmlns="http://www.w3.org/2000/svg"
   xmlns:xlink="http://www.w3.org/1999/xlink"
   xmlns:sodipodi="http://sodipodi.sourceforge.net/DTD/sodipodi-0.dtd"
   xmlns:inkscape="http://www.inkscape.org/namespaces/inkscape"
   width="160"
   height="160"
   id="svg2"
   sodipodi:version="0.32"
   inkscape:version="0.91 r"
   version="1.0"
   sodipodi:docname="MainIcon.svg"
   inkscape:output_extension="org.inkscape.output.svg.inkscape"
   inkscape:export-filename="/home/aclark/work/bax/images/MainIcon.png"
   inkscape:export-xdpi="144"
   inkscape:export-ydpi="144">
  <defs
     id="defs4">
    <linearGradient
       id="linearGradient5336">
      <stop
         style="stop-color:#ffffff;stop-opacity:1;"
         offset="0"
         id="stop5338" />
      <stop
         style="stop-color:#ffffff;stop-opacity:0.50196081;"
         offset="1"
         id="stop5340" />
    </linearGradient>
    <inkscape:perspective
       sodipodi:type="inkscape:persp3d"
       inkscape:vp_x="0 : 160 : 1"
       inkscape:vp_y="0 : 1000 : 0"
       inkscape:vp_z="320 : 160 : 1"
       inkscape:persp3d-origin="160 : 106.66667 : 1"
       id="perspective8" />
    <inkscape:perspective
       id="perspective2827"
       inkscape:persp3d-origin="0.5 : 0.33333333 : 1"
       inkscape:vp_z="1 : 0.5 : 1"
       inkscape:vp_y="0 : 1000 : 0"
       inkscape:vp_x="0 : 0.5 : 1"
       sodipodi:type="inkscape:persp3d" />
    <inkscape:perspective
       id="perspective2849"
       inkscape:persp3d-origin="0.5 : 0.33333333 : 1"
       inkscape:vp_z="1 : 0.5 : 1"
       inkscape:vp_y="0 : 1000 : 0"
       inkscape:vp_x="0 : 0.5 : 1"
       sodipodi:type="inkscape:persp3d" />
    <inkscape:perspective
       id="perspective2871"
       inkscape:persp3d-origin="0.5 : 0.33333333 : 1"
       inkscape:vp_z="1 : 0.5 : 1"
       inkscape:vp_y="0 : 1000 : 0"
       inkscape:vp_x="0 : 0.5 : 1"
       sodipodi:type="inkscape:persp3d" />
    <inkscape:perspective
       id="perspective3608"
       inkscape:persp3d-origin="0.5 : 0.33333333 : 1"
       inkscape:vp_z="1 : 0.5 : 1"
       inkscape:vp_y="0 : 1000 : 0"
       inkscape:vp_x="0 : 0.5 : 1"
       sodipodi:type="inkscape:persp3d" />
    <inkscape:perspective
       sodipodi:type="inkscape:persp3d"
       inkscape:vp_x="0 : 31.5 : 1"
       inkscape:vp_y="0 : 1000 : 0"
       inkscape:vp_z="55 : 31.5 : 1"
       inkscape:persp3d-origin="27.5 : 21 : 1"
       id="perspective4603" />
    <inkscape:perspective
       sodipodi:type="inkscape:persp3d"
       inkscape:vp_x="0 : 75.5 : 1"
       inkscape:vp_y="0 : 1000 : 0"
       inkscape:vp_z="156 : 75.5 : 1"
       inkscape:persp3d-origin="78 : 50.333333 : 1"
       id="perspective3782" />
    <path
       id="char46"
       d="M1336 0H1091L385 1332V0H200V1489H507L1151 273V1489H1336V0Z"
       edge="none" />
    <path
       id="char47"
       d="M1310 1318Q1401 1218 1449 1073T1498 744Q1498 560 1449 415T1310 172Q1218 71 1093 20T806 -31Q649 -31 521 21T302 172Q212 271 164 415T115 744Q115 926 163 1070T303 1318Q391 1416 521 1468T806 1520Q966 1520 1093 1468T1310 1318ZM1292 744Q1292 1034 1162 1191T807 1349Q580 1349 451 1192T321 744Q321 451 453 296T807 140Q1029 140 1160 295T1292 744Z"
       edge="none" />
    <inkscape:perspective
       id="perspective10"
       inkscape:persp3d-origin="372.04724 : 350.78739 : 1"
       inkscape:vp_z="744.09448 : 526.18109 : 1"
       inkscape:vp_y="0 : 1000 : 0"
       inkscape:vp_x="0 : 526.18109 : 1"
       sodipodi:type="inkscape:persp3d" />
    <linearGradient
       id="linearGradient4239">
      <stop
         id="stop4241"
         offset="0"
         style="stop-color:#1ce82b;stop-opacity:1;" />
      <stop
         id="stop4243"
         offset="1"
         style="stop-color:#117dd3;stop-opacity:1;" />
    </linearGradient>
    <linearGradient
       inkscape:collect="always"
       xlink:href="#linearGradient5336"
       id="linearGradient5342"
       x1="12.690966"
       y1="302.63437"
       x2="144.44737"
       y2="179.70485"
       gradientUnits="userSpaceOnUse" />
  </defs>
  <sodipodi:namedview
     id="base"
     pagecolor="#ffffff"
     bordercolor="#666666"
     borderopacity="1.0"
     gridtolerance="10000"
     guidetolerance="10"
     objecttolerance="10"
     inkscape:pageopacity="0.0"
     inkscape:pageshadow="2"
     inkscape:zoom="3.5178562"
     inkscape:cx="59.980325"
     inkscape:cy="68.629439"
     inkscape:document-units="px"
     inkscape:current-layer="layer1"
     width="320px"
     height="320px"
     showborder="true"
     inkscape:window-width="1271"
     inkscape:window-height="1028"
     inkscape:window-x="85"
     inkscape:window-y="0"
     showgrid="false"
     inkscape:window-maximized="0">
    <inkscape:grid
       type="xygrid"
       id="grid2814"
       empspacing="5"
       visible="true"
       enabled="true"
       snapvisiblegridlinesonly="true" />
  </sodipodi:namedview>
  <metadata
     id="metadata7">
    <rdf:RDF>
      <cc:Work
         rdf:about="">
        <dc:format>image/svg+xml</dc:format>
        <dc:type
           rdf:resource="http://purl.org/dc/dcmitype/StillImage" />
        <dc:title></dc:title>
      </cc:Work>
    </rdf:RDF>
  </metadata>
  <g
     inkscape:label="Layer 1"
     inkscape:groupmode="layer"
     id="layer1"
     transform="translate(0,-160)">
    <g
       id="g3769"
       transform="matrix(2.529541,0,0,2.529541,5.2865779,-2346.8567)">
      <path
         transform="translate(0,992.36218)"
         id="path3659"
         d="M 3.2761704,35.97475 0.76443976,35.756339"
         style="fill:none;stroke:#000000;stroke-width:1px;stroke-linecap:round;stroke-linejoin:round;stroke-opacity:0.61570243" />
      <path
         transform="translate(0,992.36218)"
         id="path3661"
         d="M 3.4945818,31.824934 1.2012625,31.060495"
         style="fill:none;stroke:#000000;stroke-width:1px;stroke-linecap:round;stroke-linejoin:round;stroke-opacity:0.61570243" />
      <path
         transform="translate(0,992.36218)"
         id="path3663"
         d="M 4.80505,28.65797 2.1841136,27.565913"
         style="fill:none;stroke:#000000;stroke-width:1px;stroke-linecap:round;stroke-linejoin:round;stroke-opacity:0.61570243" />
      <path
         transform="translate(0,992.36218)"
         id="path3665"
         d="M 6.3339295,25.600211 4.2590215,24.398948"
         style="fill:none;stroke:#000000;stroke-width:1px;stroke-linecap:round;stroke-linejoin:round;stroke-opacity:0.61570243" />
      <path
         transform="translate(0,992.36218)"
         id="path3667"
         d="M 8.1904261,22.870069 6.3339295,21.122778"
         style="fill:none;stroke:#000000;stroke-width:1px;stroke-linecap:round;stroke-linejoin:round;stroke-opacity:0.61570243" />
      <path
         transform="translate(0,992.36218)"
         id="path3669"
         d="M 9.9377169,20.576749 8.0812204,18.392636"
         style="fill:none;stroke:#000000;stroke-width:1px;stroke-linecap:round;stroke-linejoin:round;stroke-opacity:0.61570243" />
      <path
         transform="translate(0,992.36218)"
         id="path3671"
         d="M 12.558653,18.392636 11.248185,16.536139"
         style="fill:none;stroke:#000000;stroke-width:1px;stroke-linecap:round;stroke-linejoin:round;stroke-opacity:0.61570243" />
      <path
         transform="translate(0,992.36218)"
         id="path3673"
         d="M 15.507207,17.300579 14.087533,15.116465"
         style="fill:none;stroke:#000000;stroke-width:1px;stroke-linecap:round;stroke-linejoin:round;stroke-opacity:0.61570243" />
      <path
         transform="translate(0,992.36218)"
         id="path3677"
         d="M 18.45576,15.880905 17.363703,13.696791"
         style="fill:none;stroke:#000000;stroke-width:1px;stroke-linecap:round;stroke-linejoin:round;stroke-opacity:0.61570243" />
      <path
         transform="translate(0,992.36218)"
         id="path3679"
         d="M 21.622725,14.788848 20.421462,12.932352"
         style="fill:none;stroke:#000000;stroke-width:1px;stroke-linecap:round;stroke-linejoin:round;stroke-opacity:0.61570243" />
      <path
         transform="translate(0,992.36218)"
         id="path3681"
         d="M 24.78969,13.47838 23.26081,11.403472"
         style="fill:none;stroke:#000000;stroke-width:1px;stroke-linecap:round;stroke-linejoin:round;stroke-opacity:0.61570243" />
      <path
         transform="translate(0,992.36218)"
         id="path3683"
         d="M 27.519832,12.386323 25.663335,9.9837982"
         style="fill:none;stroke:#000000;stroke-width:1px;stroke-linecap:round;stroke-linejoin:round;stroke-opacity:0.61570243" />
      <path
         transform="translate(0,992.36218)"
         id="path3685"
         d="M 30.140768,10.20221 28.175066,8.345713"
         style="fill:none;stroke:#000000;stroke-width:1px;stroke-linecap:round;stroke-linejoin:round;stroke-opacity:0.61570243" />
      <path
         transform="translate(0,992.36218)"
         id="path3687"
         d="M 32.980116,8.018096 30.905208,6.1615994"
         style="fill:none;stroke:#000000;stroke-width:1px;stroke-linecap:round;stroke-linejoin:round;stroke-opacity:0.61570243" />
      <path
         transform="translate(0,992.36218)"
         id="path3689"
         d="M 35.164229,5.9431881 33.962967,4.1958972"
         style="fill:none;stroke:#000000;stroke-width:1px;stroke-linecap:round;stroke-linejoin:round;stroke-opacity:0.61570243" />
      <path
         transform="translate(0,992.36218)"
         id="path3691"
         d="M 37.457548,4.6327199 36.693109,2.557812"
         style="fill:none;stroke:#000000;stroke-width:1px;stroke-linecap:round;stroke-linejoin:round;stroke-opacity:0.61570243" />
      <path
         transform="translate(0,992.36218)"
         id="path3693"
         d="M 40.296896,4.1958972 40.18769,2.1209892"
         style="fill:none;stroke:#000000;stroke-width:1px;stroke-linecap:round;stroke-linejoin:round;stroke-opacity:0.61570243" />
      <path
         transform="translate(0,992.36218)"
         id="path3695"
         d="m 43.24545,4.3051028 0,-2.0749079"
         style="fill:none;stroke:#000000;stroke-width:1px;stroke-linecap:round;stroke-linejoin:round;stroke-opacity:0.61570243" />
      <path
         transform="translate(0,992.36218)"
         id="path3697"
         d="m 46.52162,4.4143085 0,-2.4025249"
         style="fill:none;stroke:#000000;stroke-width:1px;stroke-linecap:round;stroke-linejoin:round;stroke-opacity:0.61570243" />
      <path
         transform="translate(0,992.36218)"
         id="path3699"
         d="M 48.924145,4.8511313 49.79779,2.7762233"
         style="fill:none;stroke:#000000;stroke-width:1px;stroke-linecap:round;stroke-linejoin:round;stroke-opacity:0.61570243" />
      <path
         transform="translate(0,992.36218)"
         id="path3701"
         d="M 51.981904,5.8339824 53.183166,4.3051028"
         style="fill:none;stroke:#000000;stroke-width:1px;stroke-linecap:round;stroke-linejoin:round;stroke-opacity:0.61570243" />
      <path
         transform="translate(0,992.36218)"
         id="path3703"
         d="m 53.838401,8.1273017 1.74729,-1.2012625"
         style="fill:none;stroke:#000000;stroke-width:1px;stroke-linecap:round;stroke-linejoin:round;stroke-opacity:0.61570243" />
      <path
         transform="translate(0,992.36218)"
         id="path3705"
         d="m 54.930457,10.639032 2.29332,-0.6552338"
         style="fill:none;stroke:#000000;stroke-width:1px;stroke-linecap:round;stroke-linejoin:round;stroke-opacity:0.61570243" />
      <path
         transform="translate(0,992.36218)"
         id="path3709"
         d="m 55.913309,13.47838 2.074907,-0.218411"
         style="fill:none;stroke:#000000;stroke-width:1px;stroke-linecap:round;stroke-linejoin:round;stroke-opacity:0.61570243" />
      <path
         transform="translate(0,992.36218)"
         id="path3711"
         d="m 56.13172,15.990111 1.965702,0"
         style="fill:none;stroke:#000000;stroke-width:1px;stroke-linecap:round;stroke-linejoin:round;stroke-opacity:0.61570243" />
      <path
         transform="translate(0,992.36218)"
         id="path3713"
         d="M 55.913309,19.157075 58.315833,19.04787"
         style="fill:none;stroke:#000000;stroke-width:1px;stroke-linecap:round;stroke-linejoin:round;stroke-opacity:0.61570243" />
      <path
         transform="translate(0,992.36218)"
         id="path3715"
         d="m 55.804103,21.887217 1.747291,0.76444"
         style="fill:none;stroke:#000000;stroke-width:1px;stroke-linecap:round;stroke-linejoin:round;stroke-opacity:0.61570243" />
      <path
         transform="translate(0,992.36218)"
         id="path3717"
         d="m 55.148869,24.726565 1.965702,0.873646"
         style="fill:none;stroke:#000000;stroke-width:1px;stroke-linecap:round;stroke-linejoin:round;stroke-opacity:0.61570243" />
      <path
         transform="translate(0,992.36218)"
         id="path3719"
         d="m 53.838401,27.565913 2.184113,0.873645"
         style="fill:none;stroke:#000000;stroke-width:1px;stroke-linecap:round;stroke-linejoin:round;stroke-opacity:0.61570243" />
      <path
         transform="translate(0,992.36218)"
         id="path3721"
         d="m 52.200315,29.968438 1.965703,1.419674"
         style="fill:none;stroke:#000000;stroke-width:1px;stroke-linecap:round;stroke-linejoin:round;stroke-opacity:0.61570243" />
      <path
         transform="translate(0,992.36218)"
         id="path3723"
         d="m 50.016202,31.715729 1.528879,1.856496"
         style="fill:none;stroke:#000000;stroke-width:1px;stroke-linecap:round;stroke-linejoin:round;stroke-opacity:0.61570243" />
      <path
         transform="translate(0,992.36218)"
         id="path3725"
         d="m 46.740031,33.244608 1.638086,2.074908"
         style="fill:none;stroke:#000000;stroke-width:1px;stroke-linecap:round;stroke-linejoin:round;stroke-opacity:0.61570243" />
      <path
         transform="translate(0,992.36218)"
         id="path3727"
         d="m 43.573067,34.773488 1.092056,2.184113"
         style="fill:none;stroke:#000000;stroke-width:1px;stroke-linecap:round;stroke-linejoin:round;stroke-opacity:0.61570243" />
      <path
         transform="translate(0,992.36218)"
         id="path3729"
         d="M 3.4945818,38.814098 0.76443976,39.032509"
         style="fill:none;stroke:#000000;stroke-width:1px;stroke-linecap:round;stroke-linejoin:round;stroke-opacity:0.61570243" />
      <path
         transform="translate(0,992.36218)"
         id="path3731"
         d="m 3.3853761,42.090268 -2.51173065,0"
         style="fill:none;stroke:#000000;stroke-width:1px;stroke-linecap:round;stroke-linejoin:round;stroke-opacity:0.61570243" />
      <path
         transform="translate(0,992.36218)"
         id="path3733"
         d="M 4.0406102,44.601999 1.2012625,45.038822"
         style="fill:none;stroke:#000000;stroke-width:1px;stroke-linecap:round;stroke-linejoin:round;stroke-opacity:0.61570243" />
      <path
         transform="translate(0,992.36218)"
         id="path3735"
         d="m 4.5866386,47.768964 -2.0749079,0.76444"
         style="fill:none;stroke:#000000;stroke-width:1px;stroke-linecap:round;stroke-linejoin:round;stroke-opacity:0.61570243" />
      <path
         transform="translate(0,992.36218)"
         id="path3737"
         d="M 6.2247238,50.280694 4.1498159,51.263546"
         style="fill:none;stroke:#000000;stroke-width:1px;stroke-linecap:round;stroke-linejoin:round;stroke-opacity:0.61570243" />
      <path
         transform="translate(0,992.36218)"
         id="path3739"
         d="M 7.6443976,52.246397 6.3339295,53.666071"
         style="fill:none;stroke:#000000;stroke-width:1px;stroke-linecap:round;stroke-linejoin:round;stroke-opacity:0.61570243" />
      <path
         transform="translate(0,992.36218)"
         id="path3741"
         d="M 9.5008942,53.556865 8.8456601,55.413361"
         style="fill:none;stroke:#000000;stroke-width:1px;stroke-linecap:round;stroke-linejoin:round;stroke-opacity:0.61570243" />
      <path
         transform="translate(0,992.36218)"
         id="path3743"
         d="m 11.903419,54.43051 -0.655234,2.074908"
         style="fill:none;stroke:#000000;stroke-width:1px;stroke-linecap:round;stroke-linejoin:round;stroke-opacity:0.61570243" />
      <path
         transform="translate(0,992.36218)"
         id="path3745"
         d="m 14.524356,54.648922 0,2.402525"
         style="fill:none;stroke:#000000;stroke-width:1px;stroke-linecap:round;stroke-linejoin:round;stroke-opacity:0.61570243" />
      <path
         transform="translate(0,992.36218)"
         id="path3747"
         d="m 17.363703,54.539716 0.436823,1.965702"
         style="fill:none;stroke:#000000;stroke-width:1px;stroke-linecap:round;stroke-linejoin:round;stroke-opacity:0.61570243" />
      <path
         transform="translate(0,992.36218)"
         id="path3749"
         d="m 19.98464,53.775276 1.092056,2.074908"
         style="fill:none;stroke:#000000;stroke-width:1px;stroke-linecap:round;stroke-linejoin:round;stroke-opacity:0.61570243" />
      <path
         transform="translate(0,992.36218)"
         id="path3751"
         d="m 22.49637,52.901631 0.873646,1.856496"
         style="fill:none;stroke:#000000;stroke-width:1px;stroke-linecap:round;stroke-linejoin:round;stroke-opacity:0.61570243" />
      <path
         transform="translate(0,992.36218)"
         id="path3753"
         d="m 25.117307,52.027985 0.982851,1.965703"
         style="fill:none;stroke:#000000;stroke-width:1px;stroke-linecap:round;stroke-linejoin:round;stroke-opacity:0.61570243" />
      <path
         transform="translate(0,992.36218)"
         id="path3755"
         d="M 27.629037,50.3899 28.8303,52.574014"
         style="fill:none;stroke:#000000;stroke-width:1px;stroke-linecap:round;stroke-linejoin:round;stroke-opacity:0.61570243" />
      <path
         transform="translate(0,992.36218)"
         id="path3757"
         d="m 30.140768,48.861021 1.310468,1.74729"
         style="fill:none;stroke:#000000;stroke-width:1px;stroke-linecap:round;stroke-linejoin:round;stroke-opacity:0.61570243" />
      <path
         transform="translate(0,992.36218)"
         id="path3759"
         d="m 32.10647,47.004524 1.638085,1.52888"
         style="fill:none;stroke:#000000;stroke-width:1px;stroke-linecap:round;stroke-linejoin:round;stroke-opacity:0.61570243" />
      <path
         transform="translate(0,992.36218)"
         id="path3761"
         d="m 34.399789,44.711205 1.52888,1.201262"
         style="fill:none;stroke:#000000;stroke-width:1px;stroke-linecap:round;stroke-linejoin:round;stroke-opacity:0.61570243" />
      <path
         transform="translate(0,992.36218)"
         id="path3763"
         d="m 38.112783,39.906155 1.638085,1.310468"
         style="fill:none;stroke:#000000;stroke-width:1px;stroke-linecap:round;stroke-linejoin:round;stroke-opacity:0.61570243" />
      <path
         transform="translate(0,992.36218)"
         id="path3765"
         d="m 36.365492,42.30868 1.747291,1.092057"
         style="fill:none;stroke:#000000;stroke-width:1px;stroke-linecap:round;stroke-linejoin:round;stroke-opacity:0.61570243" />
      <path
         transform="translate(0,992.36218)"
         id="path3767"
         d="m 40.733719,37.176013 1.419674,1.419674"
         style="fill:none;stroke:#000000;stroke-width:1px;stroke-linecap:round;stroke-linejoin:round;stroke-opacity:0.61570243" />
    </g>
    <path
       style="fill:url(#linearGradient5342);stroke:#000000;stroke-width:2.40216756000000009;stroke-linecap:round;stroke-linejoin:round;stroke-miterlimit:4;stroke-opacity:1;stroke-dasharray:none;stroke-dashoffset:0;fill-opacity:1"
       d="m 62.892738,296.24855 c -12.187996,4.98977 -26.157588,9.67651 -40.010944,-2.69017 -9.546051,-13.82495 -9.203711,-28.92328 -8.863184,-44.02135 2.528757,-12.96212 6.831024,-25.74389 22.031342,-37.41798 8.668692,-7.31897 27.727256,-10.46648 42.290051,-19.07603 5.215412,-4.0331 14.378333,-15.67382 24.057207,-17.60836 4.74336,-1.42274 28.84202,-2.04407 36.71891,4.89127 11.26214,13.12916 9.72658,50.31493 -0.50647,56.49409 -7.93466,11.04524 -23.46633,8.38214 -35.1995,24.45611 -12.058426,14.98854 -21.408434,29.37379 -40.517412,34.97242 z"
       id="path2885"
       sodipodi:nodetypes="cccccccccc" />
    <path
       sodipodi:type="arc"
       style="fill:none;stroke:#000000;stroke-width:2;stroke-linecap:round;stroke-linejoin:round;stroke-miterlimit:4;stroke-opacity:0.61570243;stroke-dasharray:none;stroke-dashoffset:0"
       id="path3824"
       sodipodi:cx="43.518463"
       sodipodi:cy="13.8606"
       sodipodi:rx="3.5491846"
       sodipodi:ry="3.6583903"
       d="m 47.067648,13.8606 a 3.5491846,3.6583903 0 0 1 -3.549185,3.658391 3.5491846,3.6583903 0 0 1 -3.549184,-3.658391 3.5491846,3.6583903 0 0 1 3.549184,-3.65839 3.5491846,3.6583903 0 0 1 3.549185,3.65839 z"
       transform="matrix(2.2259259,0,0,2.2259259,17.11824,166.15805)" />
    <path
       sodipodi:type="arc"
       style="fill:none;stroke:#000000;stroke-width:1;stroke-linecap:round;stroke-linejoin:round;stroke-miterlimit:4;stroke-opacity:0.61570243;stroke-dasharray:none;stroke-dashoffset:0"
       id="path3826"
       sodipodi:cx="25.171909"
       sodipodi:cy="23.252289"
       sodipodi:rx="2.1295109"
       sodipodi:ry="2.3479221"
       d="m 27.30142,23.252289 a 2.1295109,2.3479221 0 0 1 -2.129511,2.347922 2.1295109,2.3479221 0 0 1 -2.129511,-2.347922 2.1295109,2.3479221 0 0 1 2.129511,-2.347922 2.1295109,2.3479221 0 0 1 2.129511,2.347922 z"
       transform="matrix(2.529541,0,0,2.529541,11.087623,161.43044)" />
    <path
       sodipodi:type="arc"
       style="fill:none;stroke:#000000;stroke-width:1;stroke-linecap:round;stroke-linejoin:round;stroke-miterlimit:4;stroke-opacity:0.61570243;stroke-dasharray:none;stroke-dashoffset:0"
       id="path3828"
       sodipodi:cx="44.009888"
       sodipodi:cy="27.456707"
       sodipodi:rx="1.5288795"
       sodipodi:ry="1.5288795"
       d="m 45.538767,27.456707 a 1.5288795,1.5288795 0 0 1 -1.528879,1.52888 1.5288795,1.5288795 0 0 1 -1.52888,-1.52888 1.5288795,1.5288795 0 0 1 1.52888,-1.52888 1.5288795,1.5288795 0 0 1 1.528879,1.52888 z"
       transform="matrix(2.529541,0,0,2.529541,-23.411277,189.83582)" />
    <path
       sodipodi:type="arc"
       style="fill:none;stroke:#000000;stroke-width:1;stroke-linecap:round;stroke-linejoin:round;stroke-miterlimit:4;stroke-opacity:0.61570243;stroke-dasharray:none;stroke-dashoffset:0"
       id="path3830"
       sodipodi:cx="11.302788"
       sodipodi:cy="31.224302"
       sodipodi:rx="2.0203052"
       sodipodi:ry="2.1295109"
       d="m 13.323093,31.224302 a 2.0203052,2.1295109 0 0 1 -2.020305,2.129511 2.0203052,2.1295109 0 0 1 -2.0203054,-2.129511 2.0203052,2.1295109 0 0 1 2.0203054,-2.129511 2.0203052,2.1295109 0 0 1 2.020305,2.129511 z"
       transform="matrix(2.529541,0,0,2.529541,7.2398914,154.76955)" />
    <path
       style="font-size:medium;font-style:normal;font-variant:normal;font-weight:normal;font-stretch:normal;text-indent:0;text-align:start;text-decoration:none;line-height:normal;letter-spacing:normal;word-spacing:normal;text-transform:none;direction:ltr;block-progression:tb;writing-mode:lr-tb;text-anchor:start;color:#000000;fill:none;stroke:#000000;stroke-width:1.09098244;stroke-miterlimit:4;stroke-opacity:0.61570243;stroke-dasharray:none;marker:none;visibility:visible;display:inline;overflow:visible;enable-background:accumulate;font-family:Bitstream Vera Sans;-inkscape-font-specification:Bitstream Vera Sans"
       d="m 90.723123,204.01946 a 2.7277288,2.7277288 0 0 0 -0.126275,1.26755 l 1.157996,8.605 a 2.7277288,2.7277288 0 1 0 5.386939,-0.68956 l -1.113724,-8.62421 a 2.7277288,2.7277288 0 0 0 -5.30506,-0.55979 z"
       id="path3834" />
    <path
       id="path3840"
       d="m 97.83042,242.16899 a 2.7277288,2.7277288 0 0 0 -0.918593,-0.88256 l -7.481014,-4.40671 a 2.7277288,2.7277288 0 1 0 -2.787653,4.66093 l 7.468994,4.45351 a 2.7277288,2.7277288 0 0 0 3.718266,-3.82517 z"
       style="font-size:medium;font-style:normal;font-variant:normal;font-weight:normal;font-stretch:normal;text-indent:0;text-align:start;text-decoration:none;line-height:normal;letter-spacing:normal;word-spacing:normal;text-transform:none;direction:ltr;block-progression:tb;writing-mode:lr-tb;text-anchor:start;color:#000000;fill:none;stroke:#000000;stroke-width:1.09098244;stroke-miterlimit:4;stroke-opacity:0.61570243;stroke-dasharray:none;marker:none;visibility:visible;display:inline;overflow:visible;enable-background:accumulate;font-family:Bitstream Vera Sans;-inkscape-font-specification:Bitstream Vera Sans" />
    <path
       style="font-size:medium;font-style:normal;font-variant:normal;font-weight:normal;font-stretch:normal;text-indent:0;text-align:start;text-decoration:none;line-height:normal;letter-spacing:normal;word-spacing:normal;text-transform:none;direction:ltr;block-progression:tb;writing-mode:lr-tb;text-anchor:start;color:#000000;fill:none;stroke:#000000;stroke-width:1.09098244;stroke-miterlimit:4;stroke-opacity:0.61570243;stroke-dasharray:none;marker:none;visibility:visible;display:inline;overflow:visible;enable-background:accumulate;font-family:Bitstream Vera Sans;-inkscape-font-specification:Bitstream Vera Sans"
       d="m 105.98288,224.04154 a 2.7277288,2.7277288 0 0 0 -0.0756,1.27134 l 1.50038,8.55213 a 2.7277288,2.7277288 0 1 0 5.35542,-0.90305 l -1.45706,-8.57286 a 2.7277288,2.7277288 0 0 0 -5.3232,-0.34756 z"
       id="path3842" />
    <path
       id="path3844"
       d="m 74.019129,232.93338 a 2.7277288,2.7277288 0 0 0 -1.227356,0.34098 l -7.602783,4.19322 a 2.7277288,2.7277288 0 1 0 2.591082,4.77299 l 7.636877,-4.15907 a 2.7277288,2.7277288 0 0 0 -1.39782,-5.14812 z"
       style="font-size:medium;font-style:normal;font-variant:normal;font-weight:normal;font-stretch:normal;text-indent:0;text-align:start;text-decoration:none;line-height:normal;letter-spacing:normal;word-spacing:normal;text-transform:none;direction:ltr;block-progression:tb;writing-mode:lr-tb;text-anchor:start;color:#000000;fill:none;stroke:#000000;stroke-width:1.09098244;stroke-miterlimit:4;stroke-opacity:0.61570243;stroke-dasharray:none;marker:none;visibility:visible;display:inline;overflow:visible;enable-background:accumulate;font-family:Bitstream Vera Sans;-inkscape-font-specification:Bitstream Vera Sans" />
    <path
       style="font-size:medium;font-style:normal;font-variant:normal;font-weight:normal;font-stretch:normal;text-indent:0;text-align:start;text-decoration:none;line-height:normal;letter-spacing:normal;word-spacing:normal;text-transform:none;direction:ltr;block-progression:tb;writing-mode:lr-tb;text-anchor:start;color:#000000;fill:none;stroke:#000000;stroke-width:1.09098244;stroke-miterlimit:4;stroke-opacity:0.61570243;stroke-dasharray:none;marker:none;visibility:visible;display:inline;overflow:visible;enable-background:accumulate;font-family:Bitstream Vera Sans;-inkscape-font-specification:Bitstream Vera Sans"
       d="m 59.695442,217.48699 a 2.7277288,2.7277288 0 0 0 -1.116072,-0.61417 l -8.368035,-2.31554 a 2.7277288,2.7277288 0 1 0 -1.48325,5.22451 l 8.368549,2.36386 a 2.7277288,2.7277288 0 0 0 2.598808,-4.65866 z"
       id="path3846" />
    <path
       id="path3848"
       d="m 131.68295,213.01628 a 2.7277288,2.7277288 0 0 0 -1.22736,0.34098 l -7.60278,4.19322 a 2.7277288,2.7277288 0 1 0 2.59108,4.77299 l 7.63687,-4.15907 a 2.7277288,2.7277288 0 0 0 -1.39781,-5.14812 z"
       style="font-size:medium;font-style:normal;font-variant:normal;font-weight:normal;font-stretch:normal;text-indent:0;text-align:start;text-decoration:none;line-height:normal;letter-spacing:normal;word-spacing:normal;text-transform:none;direction:ltr;block-progression:tb;writing-mode:lr-tb;text-anchor:start;color:#000000;fill:none;stroke:#000000;stroke-width:1.09098244;stroke-miterlimit:4;stroke-opacity:0.61570243;stroke-dasharray:none;marker:none;visibility:visible;display:inline;overflow:visible;enable-background:accumulate;font-family:Bitstream Vera Sans;-inkscape-font-specification:Bitstream Vera Sans" />
    <g
       id="g4625"
       transform="matrix(0.88205886,0,0,0.88205886,79.551294,-633.37763)">
      <line
         id="line4583"
         y2="1036.5511"
         x2="-61.763645"
         y1="1006.5512"
         x1="-61.763645"
         style="stroke:#000000;stroke-width:4;stroke-linecap:round;stroke-miterlimit:4;stroke-dasharray:none" />
      <line
         id="line4585"
         y2="1036.5511"
         x2="-9.8016434"
         y1="1051.5511"
         x1="-35.783646"
         style="stroke:#000000;stroke-width:4;stroke-linecap:round;stroke-miterlimit:4;stroke-dasharray:none" />
      <line
         id="line4587"
         y2="991.55121"
         x2="-35.783646"
         y1="1006.5512"
         x1="-9.8016434"
         style="stroke:#000000;stroke-width:4;stroke-linecap:round;stroke-miterlimit:4;stroke-dasharray:none" />
      <line
         id="line4589"
         y2="991.55121"
         x2="-35.783646"
         y1="1006.5512"
         x1="-61.763645"
         style="stroke:#000000;stroke-width:4;stroke-linecap:round;stroke-miterlimit:4;stroke-dasharray:none" />
      <line
         id="line4591"
         y2="1000.5674"
         x2="-34.622192"
         y1="1011.5674"
         x1="-53.674042"
         style="stroke:#000000;stroke-width:4;stroke-linecap:round;stroke-miterlimit:4;stroke-dasharray:none" />
      <line
         id="line4593"
         y2="1051.5511"
         x2="-35.783646"
         y1="1036.5511"
         x1="-61.763645"
         style="stroke:#000000;stroke-width:4;stroke-linecap:round;stroke-miterlimit:4;stroke-dasharray:none" />
      <line
         id="line4595"
         y2="1041.2994"
         x2="-34.313313"
         y1="1030.2996"
         x1="-53.365162"
         style="stroke:#000000;stroke-width:4;stroke-linecap:round;stroke-miterlimit:4;stroke-dasharray:none" />
      <line
         id="line4597"
         y2="1006.5512"
         x2="-9.8016434"
         y1="1036.5511"
         x1="-9.8016434"
         style="stroke:#000000;stroke-width:4;stroke-linecap:round;stroke-miterlimit:4;stroke-dasharray:none" />
      <line
         id="line4599"
         y2="1010.5512"
         x2="-18.589289"
         y1="1032.5511"
         x1="-18.589289"
         style="stroke:#000000;stroke-width:4;stroke-linecap:round;stroke-miterlimit:4;stroke-dasharray:none" />
    </g>
  </g>
</svg>
